<svg id="c35eeb55-d962-4604-972a-8089ca9d9ffb" data-name="图层 1" xmlns="http://www.w3.org/2000/svg" viewBox="0 0 2000 1000"><defs><style>.\37 bf46bc1-a6e4-490b-ae7c-5d516f85b2f4{fill:#fff;}.\39 50a22aa-3f55-4dbb-8f81-cb4945c206b6{fill:#fefefe;}.e3f51f47-d4d4-47e1-80ba-3e8407e6718c{fill:#0071d4;}</style></defs><title>SubIT-Rvt - Transparent</title><rect class="7bf46bc1-a6e4-490b-ae7c-5d516f85b2f4" x="1197.72" y="189.29" width="620" height="620" rx="20" ry="20"/><path class="950a22aa-3f55-4dbb-8f81-cb4945c206b6" d="M171.22,685l34.32-46.4c27.91,21.55,54.93,34.74,86.81,34.74,34.32,0,50.45-16,50.45-37.28,0-26.12-34.06-37.78-67.61-50.46-41.23-15.34-88.35-38.8-88.35-90.78,0-54,44-93.06,114.48-93.06,43.79,0,78.87,17.62,104.48,37.27L372,483.91c-22-16-44.18-27.14-68.89-27.14-31.63,0-46.61,15-46.61,34.49,0,24.6,31.76,34,65.82,46.4,42.51,15.73,90.14,36,90.14,94.08,0,53.5-42.77,96.61-122.16,96.61C247.28,728.35,202,710.1,171.22,685Z"/><path class="950a22aa-3f55-4dbb-8f81-cb4945c206b6" d="M467.26,604.61V409.35H541V595.23c0,51.22,14.86,70.49,48.92,70.49,27.65,0,45.84-12.68,69.65-43.11V409.35h73.76v311.4H672.9l-5.63-45.9h-2c-27.66,32.46-58.14,53.5-101.16,53.5C496.71,728.35,467.26,683.22,467.26,604.61Z"/><path class="950a22aa-3f55-4dbb-8f81-cb4945c206b6" d="M886,688h-2.05l-6.4,32.72H819.38V272.93h73.75V388.81l-2,51.73c26.25-22.82,58.52-38.79,90.79-38.79,78.62,0,124.08,62.38,124.08,158.1,0,106.88-64.28,168.5-134.2,168.5C943.07,728.35,912.34,713.9,886,688Zm144.18-127c0-62.12-20.49-98.89-68.37-98.89-22.8,0-44.82,11.41-68.64,35V642.14c22,19,44.82,25.86,63,25.86C998.13,668,1030.14,631.49,1030.14,561Z"/><path class="e3f51f47-d4d4-47e1-80ba-3e8407e6718c" d="M1327.18,314.82h79.76V710.23h-79.76Z"/><path class="e3f51f47-d4d4-47e1-80ba-3e8407e6718c" d="M1556.21,379.92h-84.07V313.75H1720v66.17H1636.5V710.23h-80.29Z"/></svg>